{"glyphs":{"0":{"ha":972,"x_min":69,"x_max":800,"o":"m 190 974 l 190 150 l 69 150 l 69 974 l 190 974 m 679 825 l 800 825 l 800 0 l 679 0 l 679 825 m 800 974 l 800 853 l 222 853 l 222 974 l 800 974 m 69 0 l 69 121 l 647 121 l 647 0 l 69 0 z "},"1":{"ha":417,"x_min":0,"x_max":243,"o":"m 121 0 l 121 839 l 243 839 l 243 0 l 121 0 m 0 972 l 243 972 l 243 850 l 0 850 l 0 972 z "},"2":{"ha":972,"x_min":0,"x_max":728,"o":"m 607 849 l 121 849 l 121 971 l 607 971 l 607 971 l 728 971 l 728 500 l 607 500 l 607 849 l 607 849 m 607 485 l 728 485 l 728 364 l 607 364 l 607 485 l 607 485 m 0 364 l 0 485 l 576 485 l 576 364 l 121 364 l 121 0 l 0 0 l 0 364 l 0 364 l 0 364 m 728 0 l 151 0 l 151 121 l 728 121 l 728 0 l 728 0 z "},"3":{"ha":972,"x_min":0,"x_max":851,"o":"m 396 851 l 396 974 l 729 974 l 729 974 l 851 974 l 851 0 l 729 0 l 729 851 l 396 851 l 396 851 m 700 122 l 700 0 l 0 0 l 0 122 l 700 122 l 700 122 m 243 486 l 700 486 l 700 365 l 243 365 l 243 486 l 243 486 z "},"4":{"ha":972,"x_min":0,"x_max":728,"o":"m 606 972 l 728 972 l 728 0 l 606 0 l 606 972 m 156 365 l 156 486 l 576 486 l 576 365 l 156 365 m 0 365 l 0 972 l 122 972 l 122 365 l 0 365 z "},"5":{"ha":972,"x_min":0,"x_max":729,"o":"m 121 850 l 121 501 l 0 501 l 0 972 l 121 972 l 121 972 l 607 972 l 607 850 l 121 850 m 121 486 l 121 364 l 0 364 l 0 486 l 121 486 m 729 364 l 729 364 l 729 0 l 607 0 l 607 364 l 151 364 l 151 486 l 729 486 l 729 364 m 0 0 l 0 121 l 578 121 l 578 0 l 0 0 z "},"6":{"ha":972,"x_min":0,"x_max":729,"o":"m 607 350 l 729 350 l 729 0 l 622 0 l 607 0 l 0 0 l 0 121 l 607 121 l 607 350 m 151 364 l 151 486 l 729 486 l 729 364 l 151 364 m 121 471 l 121 151 l 0 151 l 0 471 l 121 471 m 121 850 l 121 486 l 0 486 l 0 972 l 118 972 l 118 972 l 590 972 l 590 850 l 121 850 z "},"7":{"ha":972,"x_min":0,"x_max":729,"o":"m 243 486 l 729 486 l 729 363 l 243 363 l 243 486 m 424 0 l 424 347 l 546 347 l 546 0 l 424 0 m 424 501 l 424 850 l 0 850 l 0 972 l 465 972 l 465 972 l 546 972 l 546 501 l 424 501 z "},"8":{"ha":972,"x_min":0,"x_max":729,"o":"m 121 972 l 121 121 l 456 121 l 456 0 l 121 0 l 115 0 l 0 0 l 0 972 l 121 972 m 724 972 l 729 972 l 729 0 l 607 0 l 607 850 l 274 850 l 274 972 l 607 972 l 724 972 m 472 0 l 472 119 l 593 119 l 593 0 l 472 0 m 257 971 l 257 850 l 136 850 l 136 971 l 257 971 m 154 364 l 154 486 l 578 486 l 578 364 l 154 364 z "},"9":{"ha":972,"x_min":0,"x_max":729,"o":"m 658 972 l 729 972 l 729 0 l 607 0 l 607 850 l 151 850 l 151 972 l 658 972 l 658 972 m 1 364 l 1 486 l 578 486 l 578 364 l 1 364 m 121 972 l 121 517 l 0 517 l 0 972 l 121 972 z "}," ":{"ha":694,"x_min":0,"x_max":0,"o":""},"E":{"ha":972,"x_min":0,"x_max":850,"o":"m 454 850 l 122 850 l 122 0 l 0 0 l 0 972 l 122 972 l 122 972 l 454 972 l 454 850 m 151 122 l 850 122 l 850 0 l 151 0 l 151 122 m 607 485 l 607 365 l 151 365 l 151 485 l 607 485 z "},"F":{"ha":972,"x_min":0,"x_max":851,"o":"m 611 851 l 122 851 l 122 0 l 0 0 l 0 974 l 75 974 l 75 974 l 611 974 l 611 851 m 156 486 l 851 486 l 851 361 l 156 361 l 156 486 z "},"G":{"ha":972,"x_min":0,"x_max":850,"o":"m 456 865 l 121 865 l 121 0 l 0 0 l 0 972 l 117 972 l 117 972 l 456 972 l 456 865 m 151 486 l 850 486 l 850 368 l 850 368 l 850 151 l 729 151 l 729 364 l 151 364 l 151 486 m 151 121 l 850 121 l 850 0 l 151 0 l 151 121 z "},"H":{"ha":972,"x_min":0,"x_max":851,"o":"m 0 0 l 0 974 l 122 974 l 122 0 l 0 0 m 729 974 l 851 974 l 851 0 l 729 0 l 729 974 m 151 365 l 151 486 l 700 486 l 700 365 l 151 365 z "},"I":{"ha":278,"x_min":0,"x_max":124,"o":"m 0 972 l 124 972 l 124 517 l 0 517 l 0 972 m 0 0 l 0 456 l 124 456 l 124 0 l 0 0 z "},"J":{"ha":972,"x_min":0,"x_max":851,"o":"m 0 974 l 851 974 l 851 851 l 0 851 l 0 974 m 365 517 l 365 822 l 486 822 l 486 517 l 365 517 m 365 122 l 365 469 l 486 469 l 486 0 l 365 0 l 365 0 l 0 0 l 0 122 l 365 122 z "},"K":{"ha":972,"x_min":0,"x_max":851,"o":"m 0 0 l 0 972 l 121 972 l 121 0 l 0 0 m 851 486 l 851 365 l 851 365 l 851 0 l 731 0 l 731 365 l 151 365 l 151 486 l 851 486 m 607 517 l 486 517 l 151 517 l 151 638 l 486 638 l 486 972 l 607 972 l 607 517 z "},"L":{"ha":972,"x_min":0,"x_max":853,"o":"m 121 974 l 121 121 l 488 121 l 488 0 l 121 0 l 121 0 l 0 0 l 0 974 l 121 974 m 518 121 l 853 121 l 853 0 l 518 0 l 518 121 z "},"M":{"ha":972,"x_min":0,"x_max":850,"o":"m 850 972 l 850 972 l 850 850 l 850 850 l 850 0 l 729 0 l 729 850 l 440 850 l 440 972 l 729 972 l 729 972 l 850 972 l 850 972 m 410 972 l 410 850 l 121 850 l 121 0 l 0 0 l 0 972 l 121 972 l 121 972 l 410 972 m 367 0 l 367 806 l 488 806 l 488 0 l 367 0 z "},"N":{"ha":972,"x_min":0,"x_max":850,"o":"m 0 850 l 0 972 l 121 972 l 121 850 l 0 850 m 850 972 l 850 850 l 151 850 l 151 972 l 850 972 m 0 0 l 0 821 l 121 821 l 121 0 l 0 0 m 729 821 l 850 821 l 850 0 l 729 0 l 729 821 z "},"O":{"ha":972,"x_min":0,"x_max":850,"o":"m 121 972 l 121 121 l 456 121 l 456 0 l 121 0 l 115 0 l 0 0 l 0 972 l 121 972 m 850 972 l 850 850 l 850 850 l 850 0 l 729 0 l 729 850 l 394 850 l 394 972 l 729 972 l 850 972 l 850 972 m 364 972 l 364 850 l 151 850 l 151 972 l 364 972 m 486 0 l 486 121 l 700 121 l 700 0 l 486 0 z "},"P":{"ha":972,"x_min":0,"x_max":850,"o":"m 456 850 l 121 850 l 121 0 l 0 0 l 0 971 l 121 971 l 121 971 l 456 971 l 456 850 m 151 364 l 151 485 l 697 485 l 697 364 l 151 364 m 850 892 l 850 892 l 850 364 l 728 364 l 728 850 l 485 850 l 485 971 l 850 971 l 850 892 z "},"Q":{"ha":972,"x_min":0,"x_max":817,"o":"m 438 156 l 438 39 l 117 39 l 110 39 l 0 39 l 0 972 l 117 972 l 117 156 l 438 156 m 817 972 l 817 972 l 817 856 l 817 856 l 817 39 l 700 39 l 700 856 l 379 856 l 379 972 l 700 972 l 817 972 m 350 972 l 350 856 l 146 856 l 146 972 l 350 972 m 467 39 l 467 156 l 672 156 l 672 39 l 672 39 l 672 92 l 556 92 l 556 39 l 467 39 m 556 92 l 672 92 l 672 39 l 672 -121 l 556 -121 l 556 -121 l 438 -121 l 438 -237 l 322 -237 l 322 -4 l 438 -4 l 438 -4 l 556 -4 l 556 39 l 556 92 z "},"R":{"ha":972,"x_min":0,"x_max":851,"o":"m 457 851 l 121 851 l 121 0 l 0 0 l 0 972 l 71 972 l 71 972 l 457 972 l 457 851 m 851 488 l 851 364 l 851 364 l 851 0 l 731 0 l 731 364 l 153 364 l 153 488 l 851 488 m 608 972 l 608 517 l 488 517 l 488 972 l 608 972 z "},"S":{"ha":972,"x_min":0,"x_max":849,"o":"m 121 849 l 121 515 l 0 515 l 0 969 l 121 969 l 121 969 l 728 969 l 728 849 l 121 849 m 121 485 l 121 364 l 0 364 l 0 485 l 121 485 m 849 485 l 849 364 l 849 364 l 849 0 l 728 0 l 728 364 l 151 364 l 151 485 l 849 485 m 0 0 l 0 121 l 697 121 l 697 0 l 0 0 z "},"T":{"ha":972,"x_min":-1,"x_max":853,"o":"m -1 851 l -1 972 l 410 972 l 410 853 l 410 851 l 410 0 l 289 0 l 289 851 l -1 851 m 440 972 l 853 972 l 853 851 l 563 851 l 563 -1 l 440 -1 l 440 851 l 440 851 l 440 972 z "},"U":{"ha":972,"x_min":0,"x_max":850,"o":"m 121 972 l 121 121 l 410 121 l 410 0 l 121 0 l 121 0 l 0 0 l 0 972 l 121 972 m 729 972 l 850 972 l 850 0 l 736 0 l 729 0 l 442 0 l 442 121 l 729 121 l 729 972 z "},"V":{"ha":972,"x_min":0,"x_max":851,"o":"m 0 501 l 0 971 l 121 971 l 121 501 l 0 501 m 731 971 l 851 971 l 851 499 l 731 499 l 731 971 m 364 0 l 364 121 l 486 121 l 486 0 l 364 0 m 243 486 l 243 243 l 347 243 l 347 119 l 229 119 l 229 121 l 121 121 l 121 486 l 243 486 m 608 242 l 608 486 l 728 486 l 728 119 l 621 119 l 621 118 l 503 118 l 503 242 l 608 242 z "},"W":{"ha":972,"x_min":0,"x_max":851,"o":"m 122 974 l 122 122 l 411 122 l 411 0 l 122 0 l 122 0 l 0 0 l 0 974 l 122 974 m 851 122 l 851 0 l 851 0 l 851 0 l 729 0 l 729 0 l 440 0 l 440 122 l 729 122 l 729 974 l 851 974 l 851 122 l 851 122 m 489 974 l 489 167 l 367 167 l 367 974 l 489 974 z "},"X":{"ha":972,"x_min":-1,"x_max":849,"o":"m 254 485 l 254 485 l 135 485 l 135 971 l 257 971 l 257 607 l 410 607 l 410 485 l 254 485 m 707 485 l 707 485 l 440 485 l 440 607 l 593 607 l 593 971 l 714 971 l 714 485 l 707 485 m 761 456 l 849 456 l 849 0 l 728 0 l 728 333 l 439 333 l 439 456 l 761 456 l 761 456 m 86 456 l 86 456 l 410 456 l 410 333 l 119 333 l 119 0 l -1 0 l -1 456 l 86 456 z "},"Y":{"ha":972,"x_min":0,"x_max":853,"o":"m 0 488 l 0 975 l 122 975 l 122 488 l 0 488 m 731 975 l 853 975 l 853 488 l 731 488 l 731 975 m 411 488 l 411 365 l 156 365 l 156 488 l 411 488 m 443 365 l 443 488 l 699 488 l 699 365 l 443 365 m 365 0 l 365 349 l 488 349 l 488 0 l 365 0 z "},"Z":{"ha":972,"x_min":-1,"x_max":853,"o":"m 853 972 l 853 850 l 0 850 l 0 972 l 853 972 m 165 121 l 853 121 l 853 0 l 185 0 l 165 0 l -1 0 l -1 121 l 165 121 l 165 121 m 851 607 l 729 607 l 729 607 l 540 607 l 540 729 l 729 729 l 729 821 l 851 821 l 851 607 m 271 607 l 392 607 l 392 607 l 514 607 l 514 486 l 392 486 l 392 394 l 271 394 l 271 607 m 243 151 l 122 151 l 122 151 l 0 151 l 0 274 l 122 274 l 122 364 l 243 364 l 243 151 z "},"[":{"ha":972,"x_min":294,"x_max":781,"o":"m 410 850 l 415 850 l 415 121 l 410 121 l 410 0 l 294 0 l 294 972 l 410 972 l 410 850 m 415 850 l 410 850 l 410 972 l 415 972 l 781 972 l 781 850 l 415 850 m 410 0 l 410 121 l 415 121 l 781 121 l 781 0 l 410 0 l 410 0 z "},"]":{"ha":972,"x_min":168,"x_max":654,"o":"m 538 850 l 538 972 l 654 972 l 654 0 l 538 0 l 538 121 l 532 121 l 532 850 l 538 850 l 538 850 m 532 850 l 168 850 l 168 972 l 532 972 l 538 972 l 538 850 l 532 850 l 532 850 m 538 0 l 538 0 l 168 0 l 168 121 l 532 121 l 538 121 l 538 0 l 538 0 z "},"{":{"ha":972,"x_min":289,"x_max":775,"o":"m 565 972 l 775 972 l 775 850 l 565 850 l 565 501 l 532 501 l 532 501 l 289 501 l 289 622 l 444 622 l 444 972 l 526 972 l 565 972 m 565 471 l 565 121 l 775 121 l 775 0 l 565 0 l 526 0 l 444 0 l 444 350 l 289 350 l 289 471 l 532 471 l 532 471 l 565 471 z "},"}":{"ha":972,"x_min":282,"x_max":768,"o":"m 490 972 l 531 972 l 614 972 l 614 622 l 768 622 l 768 501 l 524 501 l 524 501 l 490 501 l 490 851 l 282 851 l 282 972 l 490 972 l 490 972 m 490 471 l 524 471 l 524 471 l 768 471 l 768 350 l 614 350 l 614 0 l 531 0 l 490 0 l 282 0 l 282 121 l 490 121 l 490 471 l 490 471 z "},"~":{"ha":972,"x_min":189,"x_max":757,"o":"m 615 688 l 615 688 l 614 688 l 544 617 l 543 618 l 542 617 l 472 688 l 472 688 l 472 688 l 401 760 l 261 617 l 189 688 l 331 832 l 331 832 l 358 860 l 401 903 l 401 903 l 403 903 l 444 860 l 474 832 l 474 832 l 543 760 l 685 903 l 757 832 l 615 688 l 615 688 z "},"*":{"ha":972,"x_min":0,"x_max":0,"o":""},"´":{"ha":496,"x_min":101,"x_max":386,"o":"m 314 1040 l 386 969 l 174 754 l 101 825 l 314 1040 l 314 1040 z "},"_":{"ha":1157,"x_min":0,"x_max":0,"o":""},"`":{"ha":972,"x_min":82,"x_max":367,"o":"m 154 1046 l 367 831 l 294 760 l 82 975 l 154 1046 l 154 1046 z "},"^":{"ha":972,"x_min":183,"x_max":610,"o":"m 610 710 l 536 639 l 396 782 l 256 639 l 183 710 l 325 854 l 325 854 l 353 882 l 396 925 l 396 925 l 397 925 l 439 882 l 468 854 l 468 854 l 610 710 l 610 710 z "},"‚":{"ha":563,"x_min":0,"x_max":0,"o":""},",":{"ha":635,"x_min":149,"x_max":449,"o":"m 350 88 l 449 88 l 449 -94 l 350 -94 l 350 -94 l 249 -94 l 249 -194 l 149 -194 l 149 6 l 249 6 l 249 6 l 350 6 l 350 88 l 350 88 z "},"ÿ":{"ha":1157,"x_min":0,"x_max":0,"o":""},";":{"ha":972,"x_min":188,"x_max":489,"o":"m 389 0 l 389 82 l 489 82 l 489 -100 l 389 -100 l 389 -100 l 288 -100 l 288 -200 l 188 -200 l 188 0 l 288 0 l 288 0 l 389 0 m 389 282 l 489 282 l 489 182 l 389 182 l 389 282 z "},":":{"ha":972,"x_min":417,"x_max":517,"o":"m 417 300 l 517 300 l 517 200 l 417 200 l 417 300 m 417 0 l 417 100 l 517 100 l 517 0 l 417 0 z "},"/":{"ha":972,"x_min":153,"x_max":856,"o":"m 354 211 l 354 293 l 454 293 l 454 111 l 354 111 l 354 111 l 253 111 l 253 11 l 153 11 l 153 211 l 253 211 l 253 211 l 354 211 m 556 510 l 556 592 l 656 592 l 656 410 l 556 410 l 556 410 l 454 410 l 454 310 l 354 310 l 354 510 l 454 510 l 454 510 l 556 510 m 756 889 l 856 889 l 856 707 l 756 707 l 756 707 l 654 707 l 654 607 l 554 607 l 554 807 l 654 807 l 654 807 l 756 807 l 756 889 z "},".":{"ha":972,"x_min":413,"x_max":513,"o":"m 413 106 l 513 106 l 513 6 l 413 6 l 413 106 l 413 106 z "},"=":{"ha":972,"x_min":267,"x_max":667,"o":"m 267 640 l 667 640 l 667 540 l 267 540 l 267 640 m 267 403 l 267 503 l 667 503 l 667 403 l 267 403 z "},">":{"ha":972,"x_min":329,"x_max":683,"o":"m 633 506 l 581 506 l 581 506 l 532 506 l 532 596 l 581 596 l 581 556 l 633 556 l 633 556 l 683 556 l 683 454 l 633 454 l 633 506 l 633 506 m 532 656 l 481 656 l 481 656 l 429 656 l 429 747 l 481 747 l 481 706 l 532 706 l 532 706 l 581 706 l 581 604 l 532 604 l 532 656 l 532 656 m 379 897 l 379 856 l 431 856 l 431 856 l 481 856 l 481 756 l 431 756 l 431 804 l 379 804 l 379 804 l 329 804 l 329 897 l 379 897 l 379 897 m 532 303 l 532 393 l 581 393 l 581 393 l 633 393 l 633 444 l 683 444 l 683 343 l 633 343 l 633 343 l 581 343 l 581 303 l 532 303 l 532 303 m 481 193 l 481 151 l 429 151 l 429 243 l 481 243 l 481 243 l 532 243 l 532 294 l 581 294 l 581 193 l 532 193 l 532 193 l 481 193 l 481 193 m 379 94 l 431 94 l 431 144 l 481 144 l 481 44 l 431 44 l 431 44 l 379 44 l 379 3 l 329 3 l 329 94 l 379 94 l 379 94 l 379 94 z "},"<":{"ha":972,"x_min":231,"x_max":585,"o":"m 281 506 l 281 456 l 231 456 l 231 556 l 281 556 l 281 556 l 332 556 l 332 597 l 382 597 l 382 506 l 332 506 l 332 506 l 281 506 m 382 657 l 382 606 l 332 606 l 332 707 l 382 707 l 382 707 l 433 707 l 433 749 l 485 749 l 485 657 l 433 657 l 433 657 l 382 657 m 535 899 l 585 899 l 585 806 l 535 806 l 535 806 l 483 806 l 483 756 l 433 756 l 433 857 l 483 857 l 483 857 l 535 857 l 535 899 m 382 303 l 332 303 l 332 344 l 281 344 l 281 344 l 231 344 l 231 446 l 281 446 l 281 394 l 332 394 l 332 394 l 382 394 l 382 303 m 433 194 l 382 194 l 382 194 l 332 194 l 332 294 l 382 294 l 382 243 l 433 243 l 433 243 l 485 243 l 485 153 l 433 153 l 433 194 m 535 94 l 535 94 l 585 94 l 585 3 l 535 3 l 535 44 l 483 44 l 483 44 l 433 44 l 433 144 l 483 144 l 483 94 l 535 94 z "},")":{"ha":953,"x_min":293,"x_max":594,"o":"m 393 710 l 393 710 l 293 710 l 293 892 l 393 892 l 393 810 l 494 810 l 494 810 l 594 810 l 594 610 l 494 610 l 494 710 l 393 710 m 494 185 l 494 286 l 594 286 l 594 86 l 494 86 l 494 86 l 393 86 l 393 4 l 293 4 l 293 185 l 393 185 l 393 185 l 494 185 m 494 597 l 594 597 l 594 297 l 494 297 l 494 597 z "},"(":{"ha":931,"x_min":347,"x_max":649,"o":"m 549 714 l 449 714 l 449 614 l 349 614 l 349 814 l 449 814 l 449 814 l 549 814 l 549 896 l 649 896 l 649 714 l 549 714 l 549 714 l 549 714 m 449 189 l 549 189 l 549 189 l 649 189 l 649 8 l 549 8 l 549 90 l 449 90 l 449 90 l 349 90 l 349 290 l 449 290 l 449 189 l 449 189 m 447 601 l 447 301 l 347 301 l 347 601 l 447 601 l 447 601 z "},"„":{"ha":1157,"x_min":0,"x_max":0,"o":""},"…":{"ha":2917,"x_min":0,"x_max":0,"o":""},"˝":{"ha":992,"x_min":0,"x_max":0,"o":""},"\"":{"ha":1157,"x_min":0,"x_max":0,"o":""},"#":{"ha":1157,"x_min":0,"x_max":0,"o":""},"A":{"ha":972,"x_min":0,"x_max":851,"o":"m 411 851 l 122 851 l 122 0 l 0 0 l 0 974 l 122 974 l 122 974 l 411 974 l 411 851 m 731 974 l 851 974 l 851 0 l 731 0 l 731 851 l 443 851 l 443 974 l 731 974 l 731 974 m 185 365 l 185 486 l 671 486 l 671 365 l 185 365 z "},"B":{"ha":972,"x_min":4,"x_max":854,"o":"m 489 850 l 126 850 l 126 0 l 4 0 l 4 972 l 117 972 l 117 972 l 489 972 l 489 850 m 489 515 l 354 515 l 354 819 l 489 819 l 489 515 m 854 485 l 854 365 l 854 365 l 854 151 l 732 151 l 732 365 l 156 365 l 156 485 l 854 485 m 156 0 l 156 122 l 854 122 l 854 0 l 156 0 z "},"C":{"ha":972,"x_min":0,"x_max":850,"o":"m 151 121 l 850 121 l 850 0 l 151 0 l 151 121 m 456 850 l 121 850 l 121 0 l 0 0 l 0 972 l 115 972 l 115 972 l 456 972 l 456 850 z "},"D":{"ha":972,"x_min":0,"x_max":851,"o":"m 851 968 l 851 968 l 851 517 l 731 517 l 731 850 l 0 850 l 0 972 l 851 972 l 851 968 m 121 821 l 243 821 l 243 153 l 121 153 l 121 821 m 731 122 l 731 456 l 851 456 l 851 4 l 851 4 l 851 -4 l 0 -4 l 0 122 l 731 122 z "},"!":{"ha":972,"x_min":390,"x_max":539,"o":"m 390 -1 l 390 147 l 539 147 l 539 -1 l 390 -1 m 390 890 l 539 890 l 539 185 l 390 185 l 390 890 z "},"?":{"ha":1157,"x_min":231,"x_max":882,"o":"m 776 628 l 776 733 l 882 733 l 882 522 l 776 522 l 776 522 l 668 522 l 668 435 l 561 435 l 561 628 l 668 628 l 668 628 l 776 628 m 776 936 l 882 936 l 882 744 l 776 744 l 776 832 l 668 832 l 668 832 l 561 832 l 561 1044 l 668 1044 l 668 936 l 776 936 l 776 936 m 444 832 l 444 832 l 338 832 l 338 726 l 231 726 l 231 936 l 338 936 l 338 938 l 444 938 l 444 1019 l 444 1019 l 444 1044 l 550 1044 l 550 1024 l 550 1024 l 550 832 l 444 832 m 561 311 l 561 417 l 668 417 l 668 206 l 561 206 l 561 206 l 456 206 l 456 118 l 349 118 l 349 311 l 456 311 l 456 311 l 561 311 m 349 -1 l 349 106 l 456 106 l 456 -1 l 349 -1 z "},"a":{"ha":972,"x_min":0,"x_max":851,"o":"m 411 851 l 122 851 l 122 0 l 0 0 l 0 974 l 122 974 l 122 974 l 411 974 l 411 851 m 731 974 l 851 974 l 851 0 l 731 0 l 731 851 l 443 851 l 443 974 l 731 974 m 185 365 l 185 486 l 671 486 l 671 365 l 185 365 z "},"b":{"ha":972,"x_min":4,"x_max":854,"o":"m 489 850 l 126 850 l 126 0 l 4 0 l 4 972 l 117 972 l 117 972 l 489 972 l 489 850 m 489 515 l 354 515 l 354 819 l 489 819 l 489 515 m 854 485 l 854 365 l 854 365 l 854 151 l 732 151 l 732 365 l 156 365 l 156 485 l 854 485 m 156 0 l 156 122 l 854 122 l 854 0 l 156 0 z "},"c":{"ha":972,"x_min":0,"x_max":850,"o":"m 151 121 l 850 121 l 850 0 l 151 0 l 151 121 m 456 850 l 121 850 l 121 0 l 0 0 l 0 972 l 115 972 l 115 972 l 456 972 l 456 850 z "},"d":{"ha":972,"x_min":0,"x_max":851,"o":"m 851 968 l 851 968 l 851 517 l 731 517 l 731 850 l 0 850 l 0 972 l 851 972 l 851 968 m 121 821 l 243 821 l 243 153 l 121 153 l 121 821 m 731 122 l 731 456 l 851 456 l 851 4 l 851 4 l 851 -4 l 0 -4 l 0 122 l 731 122 z "},"e":{"ha":972,"x_min":0,"x_max":850,"o":"m 454 850 l 122 850 l 122 0 l 0 0 l 0 972 l 122 972 l 122 972 l 454 972 l 454 850 m 151 122 l 850 122 l 850 0 l 151 0 l 151 122 m 607 485 l 607 365 l 151 365 l 151 485 l 607 485 z "},"f":{"ha":972,"x_min":0,"x_max":851,"o":"m 611 851 l 122 851 l 122 0 l 0 0 l 0 974 l 75 974 l 75 974 l 611 974 l 611 851 m 156 486 l 851 486 l 851 361 l 156 361 l 156 486 z "},"g":{"ha":972,"x_min":0,"x_max":850,"o":"m 456 865 l 121 865 l 121 0 l 0 0 l 0 972 l 117 972 l 117 972 l 456 972 l 456 865 m 151 486 l 850 486 l 850 368 l 850 368 l 850 151 l 729 151 l 729 364 l 151 364 l 151 486 m 151 121 l 850 121 l 850 0 l 151 0 l 151 121 z "},"h":{"ha":972,"x_min":0,"x_max":851,"o":"m 0 0 l 0 974 l 122 974 l 122 0 l 0 0 m 729 974 l 851 974 l 851 0 l 729 0 l 729 974 m 151 365 l 151 486 l 700 486 l 700 365 l 151 365 z "},"i":{"ha":278,"x_min":0,"x_max":124,"o":"m 0 972 l 124 972 l 124 517 l 0 517 l 0 972 m 0 0 l 0 456 l 124 456 l 124 0 l 0 0 z "},"j":{"ha":972,"x_min":0,"x_max":851,"o":"m 0 974 l 851 974 l 851 851 l 0 851 l 0 974 m 365 517 l 365 822 l 486 822 l 486 517 l 365 517 m 365 122 l 365 469 l 486 469 l 486 0 l 365 0 l 365 0 l 0 0 l 0 122 l 365 122 z "},"k":{"ha":972,"x_min":0,"x_max":851,"o":"m 0 0 l 0 972 l 121 972 l 121 0 l 0 0 m 851 486 l 851 365 l 851 365 l 851 0 l 731 0 l 731 365 l 151 365 l 151 486 l 851 486 m 607 517 l 486 517 l 151 517 l 151 638 l 486 638 l 486 972 l 607 972 l 607 517 z "},"l":{"ha":972,"x_min":0,"x_max":853,"o":"m 121 974 l 121 121 l 488 121 l 488 0 l 121 0 l 121 0 l 0 0 l 0 974 l 121 974 m 518 121 l 853 121 l 853 0 l 518 0 l 518 121 z "},"m":{"ha":972,"x_min":0,"x_max":850,"o":"m 850 972 l 850 972 l 850 850 l 850 850 l 850 0 l 729 0 l 729 850 l 440 850 l 440 972 l 729 972 l 729 972 l 850 972 m 410 972 l 410 850 l 121 850 l 121 0 l 0 0 l 0 972 l 121 972 l 121 972 l 410 972 m 367 0 l 367 806 l 488 806 l 488 0 l 367 0 z "},"n":{"ha":972,"x_min":0,"x_max":850,"o":"m 0 850 l 0 972 l 121 972 l 121 850 l 0 850 m 850 972 l 850 850 l 151 850 l 151 972 l 850 972 m 0 0 l 0 821 l 121 821 l 121 0 l 0 0 m 729 821 l 850 821 l 850 0 l 729 0 l 729 821 z "},"o":{"ha":972,"x_min":0,"x_max":850,"o":"m 121 972 l 121 121 l 456 121 l 456 0 l 121 0 l 115 0 l 0 0 l 0 972 l 121 972 m 850 972 l 850 850 l 850 850 l 850 0 l 729 0 l 729 850 l 394 850 l 394 972 l 729 972 l 850 972 m 364 972 l 364 850 l 151 850 l 151 972 l 364 972 m 486 0 l 486 121 l 700 121 l 700 0 l 486 0 z "},"p":{"ha":972,"x_min":0,"x_max":850,"o":"m 456 850 l 121 850 l 121 0 l 0 0 l 0 971 l 121 971 l 121 971 l 456 971 l 456 850 m 151 364 l 151 485 l 697 485 l 697 364 l 151 364 m 850 892 l 850 892 l 850 364 l 728 364 l 728 850 l 485 850 l 485 971 l 850 971 l 850 892 z "},"q":{"ha":972,"x_min":0,"x_max":817,"o":"m 438 156 l 438 39 l 117 39 l 110 39 l 0 39 l 0 972 l 117 972 l 117 156 l 438 156 m 817 972 l 817 972 l 817 856 l 817 856 l 817 39 l 700 39 l 700 856 l 379 856 l 379 972 l 700 972 l 817 972 m 350 972 l 350 856 l 146 856 l 146 972 l 350 972 m 467 39 l 467 156 l 672 156 l 672 39 l 672 39 l 672 92 l 556 92 l 556 39 l 467 39 m 556 92 l 672 92 l 672 39 l 672 -121 l 556 -121 l 556 -121 l 438 -121 l 438 -237 l 322 -237 l 322 -4 l 438 -4 l 438 -4 l 556 -4 l 556 39 l 556 92 z "},"r":{"ha":972,"x_min":0,"x_max":851,"o":"m 457 851 l 121 851 l 121 0 l 0 0 l 0 972 l 71 972 l 71 972 l 457 972 l 457 851 m 851 488 l 851 364 l 851 364 l 851 0 l 731 0 l 731 364 l 153 364 l 153 488 l 851 488 m 608 972 l 608 517 l 488 517 l 488 972 l 608 972 z "},"s":{"ha":972,"x_min":0,"x_max":849,"o":"m 121 849 l 121 515 l 0 515 l 0 969 l 121 969 l 121 969 l 728 969 l 728 849 l 121 849 m 121 485 l 121 364 l 0 364 l 0 485 l 121 485 m 849 485 l 849 364 l 849 364 l 849 0 l 728 0 l 728 364 l 151 364 l 151 485 l 849 485 m 0 0 l 0 121 l 697 121 l 697 0 l 0 0 z "},"t":{"ha":972,"x_min":-1,"x_max":853,"o":"m -1 851 l -1 972 l 410 972 l 410 853 l 410 851 l 410 0 l 289 0 l 289 851 l -1 851 m 440 972 l 853 972 l 853 851 l 563 851 l 563 -1 l 440 -1 l 440 851 l 440 851 l 440 972 z "},"u":{"ha":972,"x_min":0,"x_max":850,"o":"m 121 972 l 121 121 l 410 121 l 410 0 l 121 0 l 121 0 l 0 0 l 0 972 l 121 972 m 729 972 l 850 972 l 850 0 l 736 0 l 729 0 l 442 0 l 442 121 l 729 121 l 729 972 z "},"v":{"ha":972,"x_min":0,"x_max":851,"o":"m 0 501 l 0 971 l 121 971 l 121 501 l 0 501 m 731 971 l 851 971 l 851 499 l 731 499 l 731 971 m 364 0 l 364 121 l 486 121 l 486 0 l 364 0 m 243 486 l 243 243 l 347 243 l 347 119 l 229 119 l 229 121 l 121 121 l 121 486 l 243 486 m 608 242 l 608 486 l 728 486 l 728 119 l 621 119 l 621 118 l 503 118 l 503 242 l 608 242 z "},"w":{"ha":972,"x_min":0,"x_max":851,"o":"m 122 974 l 122 122 l 411 122 l 411 0 l 122 0 l 122 0 l 0 0 l 0 974 l 122 974 m 851 122 l 851 0 l 851 0 l 851 0 l 729 0 l 729 0 l 440 0 l 440 122 l 729 122 l 729 974 l 851 974 l 851 122 m 489 974 l 489 167 l 367 167 l 367 974 l 489 974 z "},"x":{"ha":972,"x_min":-1,"x_max":849,"o":"m 254 485 l 254 485 l 135 485 l 135 971 l 257 971 l 257 607 l 410 607 l 410 485 l 254 485 m 707 485 l 707 485 l 440 485 l 440 607 l 593 607 l 593 971 l 714 971 l 714 485 l 707 485 m 761 456 l 849 456 l 849 0 l 728 0 l 728 333 l 439 333 l 439 456 l 761 456 m 86 456 l 86 456 l 410 456 l 410 333 l 119 333 l 119 0 l -1 0 l -1 456 l 86 456 z "},"y":{"ha":972,"x_min":0,"x_max":853,"o":"m 0 488 l 0 975 l 122 975 l 122 488 l 0 488 m 731 975 l 853 975 l 853 488 l 731 488 l 731 975 m 411 488 l 411 365 l 156 365 l 156 488 l 411 488 m 443 365 l 443 488 l 699 488 l 699 365 l 443 365 m 365 0 l 365 349 l 488 349 l 488 0 l 365 0 z "},"z":{"ha":972,"x_min":-1,"x_max":853,"o":"m 853 972 l 853 850 l 0 850 l 0 972 l 853 972 m 165 121 l 853 121 l 853 0 l 185 0 l 165 0 l -1 0 l -1 121 l 165 121 m 851 607 l 729 607 l 729 607 l 540 607 l 540 729 l 729 729 l 729 821 l 851 821 l 851 607 m 271 607 l 392 607 l 392 607 l 514 607 l 514 486 l 392 486 l 392 394 l 271 394 l 271 607 m 243 151 l 122 151 l 122 151 l 0 151 l 0 274 l 122 274 l 122 364 l 243 364 l 243 151 z "}}}
